<svg xmlns="http://www.w3.org/2000/svg" width="495" height="135" viewBox="0 0 495 135">
  <g id="illustration" transform="translate(-712 -295)">
    <path id="Polygon_1" data-name="Polygon 1" d="M33.079,11.939a8,8,0,0,1,13.842,0L73.036,56.988A8,8,0,0,1,66.115,69H13.885A8,8,0,0,1,6.964,56.988Z" transform="translate(1127 430) rotate(180)" fill="#9893a4" opacity="0.8"/>
    <circle id="Ellipse_20" data-name="Ellipse 20" cx="29.5" cy="29.5" r="29.5" transform="translate(934 331)" fill="#9893a4" opacity="0.32"/>
    <path id="Polygon_2" data-name="Polygon 2" d="M35.09,11.846a8,8,0,0,1,13.82,0L76.982,59.969A8,8,0,0,1,70.072,72H13.928a8,8,0,0,1-6.91-12.031Z" transform="translate(796 295)" fill="#9893a4" opacity="0.72"/>
    <rect id="Rectangle_16876" data-name="Rectangle 16876" width="48" height="48" rx="8" transform="translate(1159 313)" fill="#9893a4" opacity="0.762"/>
    <rect id="Rectangle_16877" data-name="Rectangle 16877" width="48" height="48" rx="8" transform="translate(712 355)" fill="#9893a4" opacity="0.762"/>
  </g>
</svg>
